<svg width="313" height="345" viewBox="0 0 313 345" fill="none" xmlns="http://www.w3.org/2000/svg">
<mask id="path-1-outside-1_9_86" maskUnits="userSpaceOnUse" x="-1" y="-1" width="314" height="346" fill="black">
<rect fill="white" x="-1" y="-1" width="314" height="346"/>
<path fill-rule="evenodd" clip-rule="evenodd" d="M293 104.5L233.5 5L123.5 51.5L83.5 154.5L5 173L13 269.5L111.5 246.5L141 269.5H177L241 340L308 269.5L257 207L293 104.5ZM231.5 18.5L135.5 56.5L80.5 202.5L135.5 245.5L189 98L212.5 106L159 252H228.5L283 106L231.5 18.5Z"/>
</mask>
<path fill-rule="evenodd" clip-rule="evenodd" d="M293 104.5L233.5 5L123.5 51.5L83.5 154.5L5 173L13 269.5L111.5 246.5L141 269.5H177L241 340L308 269.5L257 207L293 104.5ZM231.5 18.5L135.5 56.5L80.5 202.5L135.5 245.5L189 98L212.5 106L159 252H228.5L283 106L231.5 18.5Z" fill="#124E49"/>
<path d="M143.355 270.339L199.855 111.839L195.145 110.161L138.645 268.661L143.355 270.339ZM233.5 5L237.791 2.43387C236.511 0.293588 233.85 -0.576402 231.553 0.394586L233.5 5ZM293 104.5L297.717 106.157C298.21 104.756 298.053 103.208 297.291 101.934L293 104.5ZM123.5 51.5L121.553 46.8946C120.308 47.4211 119.329 48.4295 118.839 49.69L123.5 51.5ZM83.5 154.5L84.6469 159.367C86.2502 158.989 87.5646 157.846 88.1609 156.31L83.5 154.5ZM5 173L3.85308 168.133C1.4438 168.701 -0.187409 170.946 0.0170936 173.413L5 173ZM13 269.5L8.01709 269.913C8.13719 271.362 8.88179 272.686 10.0569 273.542C11.2321 274.398 12.7214 274.7 14.1369 274.369L13 269.5ZM111.5 246.5L114.574 242.557C113.383 241.628 111.835 241.287 110.363 241.631L111.5 246.5ZM141 269.5L137.926 273.443C138.804 274.128 139.886 274.5 141 274.5V269.5ZM177 269.5L180.702 266.139C179.754 265.095 178.41 264.5 177 264.5V269.5ZM241 340L237.298 343.361C238.232 344.39 239.553 344.984 240.943 345C242.333 345.016 243.667 344.452 244.624 343.444L241 340ZM308 269.5L311.624 272.944C313.359 271.119 313.466 268.29 311.874 266.339L308 269.5ZM257 207L252.283 205.343C251.705 206.986 252.025 208.812 253.126 210.161L257 207ZM135.5 56.5L133.66 51.851C132.349 52.3699 131.318 53.418 130.821 54.7374L135.5 56.5ZM231.5 18.5L235.809 15.9638C234.56 13.841 231.95 12.9444 229.66 13.851L231.5 18.5ZM80.5 202.5L75.821 200.737C75.0503 202.783 75.6981 205.093 77.4204 206.439L80.5 202.5ZM135.5 245.5L132.42 249.439C133.682 250.426 135.34 250.748 136.88 250.306C138.42 249.864 139.654 248.711 140.2 247.205L135.5 245.5ZM189 98L190.611 93.2668C188.034 92.3893 185.228 93.7355 184.3 96.2951L189 98ZM212.5 106L217.195 107.72C217.658 106.456 217.592 105.059 217.012 103.844C216.431 102.63 215.386 101.701 214.111 101.267L212.5 106ZM159 252L154.305 250.28C153.743 251.813 153.966 253.525 154.901 254.863C155.836 256.202 157.367 257 159 257V252ZM228.5 252V257C230.587 257 232.454 255.704 233.184 253.749L228.5 252ZM283 106L287.684 107.749C288.211 106.337 288.073 104.763 287.309 103.464L283 106ZM229.209 7.56613L288.709 107.066L297.291 101.934L237.791 2.43387L229.209 7.56613ZM125.447 56.1054L235.447 9.60541L231.553 0.394586L121.553 46.8946L125.447 56.1054ZM88.1609 156.31L128.161 53.31L118.839 49.69L78.8391 152.69L88.1609 156.31ZM6.14692 177.867L84.6469 159.367L82.3531 149.633L3.85308 168.133L6.14692 177.867ZM17.9829 269.087L9.98291 172.587L0.0170936 173.413L8.01709 269.913L17.9829 269.087ZM110.363 241.631L11.8631 264.631L14.1369 274.369L112.637 251.369L110.363 241.631ZM144.074 265.557L114.574 242.557L108.426 250.443L137.926 273.443L144.074 265.557ZM177 264.5H141V274.5H177V264.5ZM244.702 336.639L180.702 266.139L173.298 272.861L237.298 343.361L244.702 336.639ZM304.376 266.056L237.376 336.556L244.624 343.444L311.624 272.944L304.376 266.056ZM253.126 210.161L304.126 272.661L311.874 266.339L260.874 203.839L253.126 210.161ZM288.283 102.843L252.283 205.343L261.717 208.657L297.717 106.157L288.283 102.843ZM137.34 61.149L233.34 23.149L229.66 13.851L133.66 51.851L137.34 61.149ZM85.179 204.263L140.179 58.2626L130.821 54.7374L75.821 200.737L85.179 204.263ZM138.58 241.561L83.5796 198.561L77.4204 206.439L132.42 249.439L138.58 241.561ZM184.3 96.2951L130.8 243.795L140.2 247.205L193.7 99.7049L184.3 96.2951ZM214.111 101.267L190.611 93.2668L187.389 102.733L210.889 110.733L214.111 101.267ZM163.695 253.72L217.195 107.72L207.805 104.28L154.305 250.28L163.695 253.72ZM228.5 247H159V257H228.5V247ZM278.316 104.251L223.816 250.251L233.184 253.749L287.684 107.749L278.316 104.251ZM227.191 21.0362L278.691 108.536L287.309 103.464L235.809 15.9638L227.191 21.0362Z" fill="#124E49" mask="url(#path-1-outside-1_9_86)"/>
</svg>
